<?xml version="1.0" standalone="no"?>
<!DOCTYPE svg PUBLIC "-//W3C//DTD SVG 20010904//EN"
 "http://www.w3.org/TR/2001/REC-SVG-20010904/DTD/svg10.dtd">
<svg version="1.0" xmlns="http://www.w3.org/2000/svg"
 width="1280.000000pt" height="1280.000000pt" viewBox="0 0 1280.000000 1280.000000"
 preserveAspectRatio="xMidYMid meet">
<metadata>
Created by potrace 1.15, written by Peter Selinger 2001-2017
</metadata>
<g transform="translate(0.000000,1280.000000) scale(0.100000,-0.100000)"
fill="white" stroke="none">
<path d="M6115 12794 c-281 -20 -371 -28 -500 -45 -1427 -185 -2743 -828
-3744 -1830 -993 -994 -1637 -2317 -1820 -3739 -37 -289 -46 -430 -46 -780 0
-510 39 -870 146 -1359 333 -1518 1221 -2892 2444 -3783 985 -717 2084 -1128
3320 -1240 183 -17 787 -17 970 0 1236 112 2335 523 3320 1240 1386 1010 2319
2608 2544 4362 37 289 46 430 46 780 0 350 -9 491 -46 780 -183 1422 -827
2745 -1820 3739 -1060 1060 -2456 1711 -3983 1857 -149 14 -715 27 -831 18z"/>
</g>
</svg>
